<?xml version="1.0" encoding="utf-8"?>
<!-- Generator: Adobe Illustrator 25.4.1, SVG Export Plug-In . SVG Version: 6.00 Build 0)  -->
<svg version="1.1" id="Capa_1" xmlns="http://www.w3.org/2000/svg" xmlns:xlink="http://www.w3.org/1999/xlink" x="0px" y="0px"
	 viewBox="0 0 60 60" style="enable-background:new 0 0 60 60;" xml:space="preserve">
<style type="text/css">
	.st0{fill:#6F1C1A;}
</style>
<path class="st0" d="M34.33,54.87c0-5.79,0-11.58,0-17.43c1.94,0,3.85,0,5.8,0c0.38-2.43,0.74-4.81,1.12-7.25c-2.35,0-4.61,0-6.96,0
	c0-0.28,0-0.5,0-0.73c0.02-1.52-0.06-3.05,0.07-4.57c0.18-2.06,1.5-3.22,3.58-3.29c1.17-0.04,2.34-0.01,3.55-0.01
	c0-2.07,0-4.1,0-6.2c-0.82-0.1-1.66-0.23-2.51-0.3c-1.91-0.17-3.82-0.32-5.71,0.13c-3.73,0.88-6.21,3.55-6.59,7.37
	c-0.21,2.05-0.12,4.13-0.17,6.2c-0.01,0.43,0,0.85,0,1.36c-2.11,0-4.19,0-6.31,0c0,2.45,0,4.82,0,7.26c2.06,0,4.14,0,6.27,0
	c0,5.86,0,11.65,0,17.44c-8.98-0.98-20.14-9.3-21.01-23.07C4.53,17.18,16.12,5.23,30.25,5.13C44.16,5.05,55.51,16.46,55.4,30.36
	C55.29,44.08,44.59,53.63,34.33,54.87z"/>
<path class="st0" d="M832.51,147.19c-16.5-1.06-30.82-6.94-42.71-18.41c-7.6-7.33-13.05-16.03-16.41-26.41
	c9.53,1.65,18.75,1.49,27.99-1.11c-14.65-3.6-26.9-11.03-36.35-22.79c-9.5-11.83-14.08-25.4-14.17-40.94
	c8.98,4.78,18.22,7.49,28.21,7.72c-13.38-9.91-22.41-22.68-26.06-38.99c-3.64-16.26-1.17-31.63,6.97-46.34
	c34.68,40.92,78.52,63.35,131.96,67.07c-0.46-4.35-1.13-8.36-1.26-12.39c-0.56-17.93,5.32-33.54,17.61-46.59
	c10.03-10.65,22.41-17.17,36.89-19.18c21.32-2.96,39.77,3.29,55.18,18.34c0.87,0.85,1.56,1.13,2.75,0.87
	c13-2.78,25.29-7.39,36.85-13.96c0.59-0.34,1.2-0.66,2.2-1.22c-2.37,7.56-5.95,14.02-10.57,19.93
	c-4.65,5.95-10.24,10.87-16.51,15.13c12.21-1.29,23.85-4.59,35.64-9.65c-0.66,1.04-1.02,1.63-1.41,2.2
	c-8.06,11.52-17.74,21.47-29,29.88c-1.07,0.8-1.46,1.62-1.42,2.96c1.03,27.84-4.48,54.44-15.5,79.95
	c-9.43,21.82-22.43,41.25-39.29,58.03c-24.07,23.95-52.78,39.49-85.96,46.68c-23.59,5.11-47.36,5.81-71.2,1.93
	c-21.55-3.51-41.82-10.77-60.76-21.67c-2.17-1.25-4.29-2.57-6.43-3.86c-0.16-0.09-0.28-0.25-0.79-0.72
	C773.78,176.91,804.92,168.36,832.51,147.19z"/>
<path class="st0" d="M1259.93,187.29c-24.12-0.67-45.85-1.14-67.57-1.93c-13.52-0.49-27.03-1.32-40.41-3.48
	c-14.71-2.37-25.28-10.16-30.14-24.38c-2.09-6.11-3.03-12.69-3.82-19.14c-2.4-19.52-3.19-39.15-2.89-58.8
	c0.27-17.13,1.04-34.24,3.53-51.21c0.59-4.02,1.23-8.08,2.4-11.95c4.46-14.82,14.35-24.01,29.65-26.57
	c8.95-1.5,18.05-2.34,27.12-2.88c33.01-1.96,66.06-2.64,99.12-2.11c18.74,0.3,37.47,0.94,56.2,1.7c11.96,0.49,23.92,1.29,35.72,3.48
	c15.72,2.92,26.63,13.49,29.99,29.13c2.34,10.91,3.69,21.92,3.64,33.12c-0.11,24.01,0.14,48.03-0.11,72.04
	c-0.11,10.72-1.38,21.45-4.47,31.75c-4.38,14.6-14.5,23.42-29.53,25.69c-11.16,1.68-22.48,2.76-33.76,3.24
	C1308.92,186.06,1283.24,186.6,1259.93,187.29z M1230.76,129.14c25.17-14.49,50.11-28.84,75.33-43.36
	c-25.28-14.55-50.2-28.89-75.33-43.36C1230.76,71.46,1230.76,100.11,1230.76,129.14z"/>
<path class="st0" d="M1641.22,214.15c-74.71,1.11-133.85-57.65-136.02-129.15c-2.31-76.06,57.47-136.45,130.59-137.95
	c37.43-0.77,69.94,12.2,96.65,38.48c25.39,24.99,38.86,55.71,39.75,91.29C1774.14,153.29,1713.65,212.75,1641.22,214.15z
	 M1617.3,17.26c-0.01,0.22-0.02,0.44-0.02,0.66c-2.69,0-5.39-0.06-8.08,0.01c-13.08,0.33-26.06,1.72-38.87,4.4
	c-5.46,1.14-10.93,2.45-16.18,4.3c-6.26,2.21-9.14,9.17-7,15.49c2.08,6.14,8.67,9.68,14.99,7.88c13.71-3.9,27.69-6.07,41.91-6.93
	c12.82-0.78,25.59-0.51,38.38,0.62c10.85,0.96,21.58,2.61,32.18,5.11c15.14,3.56,29.69,8.69,43.17,16.6
	c1.06,0.62,2.24,1.13,3.43,1.41c6.04,1.41,12.17-1.83,14.43-7.52c2.29-5.79,0.14-12.1-5.29-15.35
	c-11.16-6.7-23.11-11.59-35.52-15.42c-15.63-4.82-31.61-7.98-47.9-9.38C1637.08,18.29,1627.18,17.87,1617.3,17.26z M1612.67,63.66
	c-5.65-0.09-15.11,0.63-24.51,2c-8.72,1.27-17.35,2.96-25.72,5.79c-6.72,2.28-9.13,10.43-4.79,16.02c3.03,3.9,7.04,4.91,12.59,3.26
	c10.82-3.22,21.89-5.01,33.13-5.78c10.57-0.73,21.13-0.55,31.69,0.54c9.6,0.99,19.07,2.65,28.39,5.13
	c13.58,3.62,26.54,8.74,38.58,16.09c3.86,2.36,8.32,2.01,11.81-0.67c5.94-4.57,5.19-13.28-1.51-17.36
	c-9.81-5.99-20.22-10.68-31.08-14.39C1660.27,67.12,1638.67,63.74,1612.67,63.66z M1614.6,107.23c-6.13-0.05-15.85,0.61-25.49,2.12
	c-7.36,1.16-14.67,2.68-21.97,4.16c-2.53,0.51-4.35,2.16-5.37,4.54c-1.32,3.08-0.92,6.03,1.18,8.61c2.11,2.59,4.89,3.42,8.21,2.85
	c9.38-1.62,18.74-3.45,28.17-4.64c10.72-1.35,21.51-1.37,32.3-0.45c10.93,0.94,21.62,2.98,32.04,6.42
	c8.59,2.84,16.76,6.6,24.48,11.31c2.25,1.37,4.64,1.86,7.14,1.06c3.37-1.09,5.37-3.48,5.77-7.01c0.41-3.55-1.11-6.27-4.1-8.11
	c-6.99-4.29-14.33-7.89-21.99-10.84C1656.71,110.22,1637.74,107.21,1614.6,107.23z"/>
<g>
	<path class="st0" d="M25.39-80.35c11.07-0.08,21.19,7.81,23.91,19.01c2.31,9.52-1.53,19.82-9.5,25.51
		c-4.68,3.34-9.89,4.92-15.63,4.81c-11.26-0.23-21.34-8.5-23.65-19.43C-1.86-61.72,3.67-72.92,14.08-77.9
		C17.51-79.54,21.13-80.35,25.39-80.35z M8.5-55.67c-0.01,0-0.02,0-0.02,0c0,1.9-0.01,3.8,0,5.7c0,0.67-0.01,1.34,0.07,2
		c0.67,4.93,4.75,8.57,9.75,8.62c4.49,0.05,8.97,0.05,13.46,0c5.54-0.06,9.83-4.44,9.84-9.98c0.01-4.25,0.01-8.5-0.01-12.75
		c0-0.61-0.03-1.22-0.15-1.82c-0.91-4.79-4.93-8.13-9.8-8.14c-4.4-0.01-8.79-0.02-13.19,0.01c-0.78,0-1.57,0.1-2.34,0.27
		c-4.24,0.94-7.41,4.66-7.6,9C8.42-60.4,8.5-58.03,8.5-55.67z"/>
	<path class="st0" d="M25.07-68.92c2.38,0,4.76-0.08,7.13,0.02c3.46,0.15,6.27,3.13,6.29,6.59c0.02,4.41,0.02,8.82,0,13.23
		c-0.02,3.59-2.98,6.61-6.57,6.64c-4.57,0.04-9.15,0.04-13.72,0c-3.61-0.03-6.54-3.01-6.58-6.69c-0.04-4.38-0.05-8.76,0-13.15
		c0.04-3.79,3.01-6.64,6.86-6.68c2.2-0.02,4.4,0,6.59,0C25.07-68.94,25.07-68.93,25.07-68.92z M33.33-55.69
		c0-4.45-3.65-8.05-8.15-8.05c-4.49,0-8.17,3.63-8.16,8.05c0,4.43,3.68,8.06,8.17,8.06C29.68-47.63,33.33-51.24,33.33-55.69z
		 M31.88-64.26c0.01,1.06,0.87,1.9,1.95,1.9c1.08-0.01,1.93-0.86,1.92-1.93c-0.01-1.06-0.88-1.91-1.95-1.9
		C32.72-66.18,31.87-65.32,31.88-64.26z"/>
	<path class="st0" d="M30.4-55.69c0,2.85-2.33,5.15-5.21,5.15c-2.88,0-5.23-2.31-5.24-5.14c0-2.84,2.34-5.15,5.23-5.16
		C28.06-60.84,30.39-58.54,30.4-55.69z"/>
</g>
</svg>
