<?xml version="1.0" encoding="utf-8"?>
<!-- Generator: Adobe Illustrator 25.4.1, SVG Export Plug-In . SVG Version: 6.00 Build 0)  -->
<svg version="1.1" id="Capa_1" xmlns="http://www.w3.org/2000/svg" xmlns:xlink="http://www.w3.org/1999/xlink" x="0px" y="0px"
	 viewBox="0 0 60 60" style="enable-background:new 0 0 60 60;" xml:space="preserve">
<style type="text/css">
	.st0{fill:#6F1C1A;}
</style>
<g>
	<path class="st0" d="M30.4,5.3c11.1-0.1,21.2,7.8,23.9,19c2.3,9.5-1.5,19.8-9.5,25.5c-4.7,3.3-9.9,4.9-15.6,4.8
		C17.9,54.4,7.9,46.2,5.6,35.2C3.2,24,8.7,12.8,19.1,7.8C22.5,6.1,26.1,5.3,30.4,5.3z M13.5,30C13.5,30,13.5,30,13.5,30
		c0,1.9,0,3.8,0,5.7c0,0.7,0,1.3,0.1,2c0.7,4.9,4.7,8.6,9.7,8.6c4.5,0,9,0,13.5,0c5.5-0.1,9.8-4.4,9.8-10c0-4.2,0-8.5,0-12.8
		c0-0.6,0-1.2-0.2-1.8c-0.9-4.8-4.9-8.1-9.8-8.1c-4.4,0-8.8,0-13.2,0c-0.8,0-1.6,0.1-2.3,0.3c-4.2,0.9-7.4,4.7-7.6,9
		C13.4,25.3,13.5,27.6,13.5,30z"/>
	<path class="st0" d="M30.1,16.8c2.4,0,4.8-0.1,7.1,0c3.5,0.1,6.3,3.1,6.3,6.6c0,4.4,0,8.8,0,13.2c0,3.6-3,6.6-6.6,6.6
		c-4.6,0-9.1,0-13.7,0c-3.6,0-6.5-3-6.6-6.7c0-4.4,0-8.8,0-13.1c0-3.8,3-6.6,6.9-6.7 M38.4,30c0-4.4-3.7-8.1-8.1-8.1
		c-4.5,0-8.2,3.6-8.2,8c0,4.4,3.7,8.1,8.2,8.1C34.7,38,38.4,34.4,38.4,30z M36.9,21.4c0,1.1,0.9,1.9,2,1.9c1.1,0,1.9-0.9,1.9-1.9
		c0-1.1-0.9-1.9-2-1.9S36.9,20.4,36.9,21.4z"/>
	<path class="st0" d="M35.4,30c0,2.9-2.3,5.1-5.2,5.1c-2.9,0-5.2-2.3-5.2-5.1c0-2.8,2.3-5.1,5.2-5.2C33.1,24.8,35.4,27.1,35.4,30z"
		/>
</g>
</svg>
