<?xml version="1.0" encoding="utf-8"?>
<!-- Generator: Adobe Illustrator 26.0.1, SVG Export Plug-In . SVG Version: 6.00 Build 0)  -->
<svg version="1.1" id="Capa_1" xmlns="http://www.w3.org/2000/svg" xmlns:xlink="http://www.w3.org/1999/xlink" x="0px" y="0px"
	 viewBox="0 0 76 69.6" style="enable-background:new 0 0 76 69.6;" xml:space="preserve">
<style type="text/css">
	.st0{fill:#D3C6B5;}
</style>
<path class="st0" d="M14,59.4v-2.5c1.9-0.1,3.2-0.5,3.9-1.3c0.7-0.8,1.1-1.9,1.1-3.2c0.1-1.4,0.2-3,0.2-4.7V15.4
	c0-2.1,0.1-3.9,0.2-5.4c-0.9,0-1.8,0.1-2.7,0.2s-1.8,0.1-2.7,0.2V7.1h16.8v2.5c-1.8,0-3.1,0.5-3.9,1.3c-0.7,0.8-1.1,1.9-1.2,3.2
	c0,1.4-0.1,2.9-0.1,4.7v12.4h26.7V15.5c0-2.1,0.1-3.9,0.2-5.4c-0.9,0-1.8,0.1-2.7,0.2c-0.9,0-1.8,0.1-2.7,0.2V7.1h16.8v2.5
	c-1.8,0-3.1,0.5-3.9,1.3c-0.7,0.8-1.1,1.9-1.2,3.2c0,1.4-0.1,2.9-0.1,4.7v31.7c0,2.6-0.1,4.6-0.2,5.9c0.9,0,1.8-0.1,2.7-0.2
	c0.9,0,1.8-0.1,2.7-0.2v3.3H47.1v-2.5c1.9-0.1,3.2-0.5,3.9-1.3c0.7-0.8,1.1-1.9,1.1-3.2c0.1-1.4,0.2-3,0.2-4.7V34.1l-26.7,0.3v16
	c0,2.6-0.1,4.6-0.2,5.9c0.9,0,1.8-0.1,2.7-0.2c0.9,0,1.8-0.1,2.7-0.2v3.3L14,59.4L14,59.4z"/>
</svg>
