<?xml version="1.0" encoding="utf-8"?>
<!-- Generator: Adobe Illustrator 25.4.1, SVG Export Plug-In . SVG Version: 6.00 Build 0)  -->
<svg version="1.1" id="Capa_1" xmlns="http://www.w3.org/2000/svg" xmlns:xlink="http://www.w3.org/1999/xlink" x="0px" y="0px"
	 viewBox="0 0 60 60" style="enable-background:new 0 0 60 60;" xml:space="preserve">
<style type="text/css">
	.st0{fill:#6F1C1A;}
</style>
<path class="st0" d="M30.5,55.8C16.5,56,5.4,45,5,31.7C4.6,17.4,15.8,6.1,29.5,5.8c7-0.1,13.1,2.3,18.1,7.2
	c4.8,4.7,7.3,10.4,7.4,17.1C55.3,44.4,44,55.6,30.5,55.8z M26,19c0,0,0,0.1,0,0.1c-0.5,0-1,0-1.5,0c-2.5,0.1-4.9,0.3-7.3,0.8
	c-1,0.2-2.1,0.5-3,0.8c-1.2,0.4-1.7,1.7-1.3,2.9c0.4,1.1,1.6,1.8,2.8,1.5c2.6-0.7,5.2-1.1,7.8-1.3c2.4-0.1,4.8-0.1,7.2,0.1
	c2,0.2,4,0.5,6,1c2.8,0.7,5.6,1.6,8.1,3.1c0.2,0.1,0.4,0.2,0.6,0.3c1.1,0.3,2.3-0.3,2.7-1.4c0.4-1.1,0-2.3-1-2.9
	c-2.1-1.2-4.3-2.2-6.7-2.9c-2.9-0.9-5.9-1.5-9-1.8C29.7,19.2,27.8,19.1,26,19z M25.1,27.7c-1.1,0-2.8,0.1-4.6,0.4
	c-1.6,0.2-3.2,0.5-4.8,1.1c-1.3,0.4-1.7,2-0.9,3c0.6,0.7,1.3,0.9,2.4,0.6c2-0.6,4.1-0.9,6.2-1.1c2-0.1,4-0.1,5.9,0.1
	c1.8,0.2,3.6,0.5,5.3,1c2.5,0.7,5,1.6,7.2,3c0.7,0.4,1.6,0.4,2.2-0.1c1.1-0.8,1-2.5-0.3-3.2c-1.8-1.1-3.8-2-5.8-2.7
	C34,28.3,30,27.7,25.1,27.7z M25.5,35.8c-1.1,0-3,0.1-4.8,0.4c-1.4,0.2-2.7,0.5-4.1,0.8c-0.5,0.1-0.8,0.4-1,0.8
	c-0.2,0.6-0.2,1.1,0.2,1.6s0.9,0.6,1.5,0.5c1.8-0.3,3.5-0.7,5.3-0.9c2-0.2,4-0.3,6-0.1c2,0.2,4,0.6,6,1.2c1.6,0.5,3.1,1.2,4.6,2.1
	c0.4,0.3,0.9,0.3,1.3,0.2c0.6-0.2,1-0.7,1.1-1.3s-0.2-1.2-0.8-1.5c-1.3-0.8-2.7-1.5-4.1-2C33.4,36.4,29.8,35.8,25.5,35.8z"/>
</svg>
