<?xml version="1.0" encoding="utf-8"?>
<!-- Generator: Adobe Illustrator 25.4.1, SVG Export Plug-In . SVG Version: 6.00 Build 0)  -->
<svg version="1.1" id="Capa_1" xmlns="http://www.w3.org/2000/svg" xmlns:xlink="http://www.w3.org/1999/xlink" x="0px" y="0px"
	 viewBox="0 0 60 60" style="enable-background:new 0 0 60 60;" xml:space="preserve">
<style type="text/css">
	.st0{fill:#6F1C1A;}
</style>
<path class="st0" d="M18.3,43.5c-3.1-0.2-5.8-1.3-8-3.5c-1.4-1.4-2.4-3-3.1-4.9c1.8,0.3,3.5,0.3,5.2-0.2c-2.7-0.7-5-2.1-6.8-4.3
	c-1.8-2.2-2.6-4.8-2.7-7.7c1.7,0.9,3.4,1.4,5.3,1.5c-2.5-1.9-4.2-4.2-4.9-7.3c-0.7-3-0.2-5.9,1.3-8.7c6.5,7.7,14.7,11.9,24.7,12.6
	c-0.1-0.8-0.2-1.6-0.2-2.3c-0.1-3.4,1-6.3,3.3-8.7c1.9-2,4.2-3.2,6.9-3.6c4-0.6,7.4,0.6,10.3,3.4c0.2,0.2,0.3,0.2,0.5,0.2
	c2.4-0.5,4.7-1.4,6.9-2.6c0.1-0.1,0.2-0.1,0.4-0.2c-0.4,1.4-1.1,2.6-2,3.7s-1.9,2-3.1,2.8c2.3-0.2,4.5-0.9,6.7-1.8
	c-0.1,0.2-0.2,0.3-0.3,0.4c-1.5,2.2-3.3,4-5.4,5.6c-0.2,0.1-0.3,0.3-0.3,0.5c0.2,5.2-0.8,10.2-2.9,15c-1.8,4.1-4.2,7.7-7.3,10.9
	c-4.5,4.5-9.9,7.4-16.1,8.7c-4.4,1-8.9,1.1-13.3,0.4c-4-0.7-7.8-2-11.4-4.1C1.8,49,1.4,48.8,1,48.5c0,0-0.1,0-0.1-0.1
	C7.3,49,13.2,47.4,18.3,43.5z"/>
</svg>
