<?xml version="1.0" encoding="utf-8"?>
<!-- Generator: Adobe Illustrator 25.4.1, SVG Export Plug-In . SVG Version: 6.00 Build 0)  -->
<svg version="1.1" id="Capa_1" xmlns="http://www.w3.org/2000/svg" xmlns:xlink="http://www.w3.org/1999/xlink" x="0px" y="0px"
	 viewBox="0 0 60 60" style="enable-background:new 0 0 60 60;" xml:space="preserve">
<style type="text/css">
	.st0{fill:#6F1C1A;}
</style>
<path class="st0" d="M30.2,49c-4.5-0.1-8.6-0.2-12.6-0.4c-2.5-0.1-5.1-0.2-7.6-0.7c-2.8-0.4-4.7-1.9-5.6-4.6C4,42.2,3.8,41,3.7,39.8
	c-0.5-3.7-0.6-7.3-0.5-11c0-3.2,0.2-6.4,0.7-9.6C3.9,18.5,4,17.7,4.2,17c0.8-2.8,2.7-4.5,5.6-5c1.7-0.3,3.4-0.4,5.1-0.5
	c6.2-0.4,12.4-0.5,18.6-0.4c3.5,0.1,7,0.2,10.5,0.3c2.2,0.1,4.5,0.2,6.7,0.6c2.9,0.6,5,2.5,5.6,5.4c0.4,2,0.7,4.1,0.7,6.2
	c0,4.5,0,9,0,13.5c0,2-0.3,4-0.8,5.9c-0.8,2.7-2.7,4.4-5.5,4.8c-2.1,0.3-4.2,0.5-6.3,0.6C39.4,48.7,34.6,48.8,30.2,49z M24.8,38.1
	c4.7-2.7,9.4-5.4,14.1-8.1c-4.7-2.7-9.4-5.4-14.1-8.1C24.8,27.3,24.8,32.7,24.8,38.1z"/>
</svg>
